<svg width="84" height="24" viewBox="0 0 84 24" fill="none" xmlns="http://www.w3.org/2000/svg">
<path d="M83.4431 12.0909C83.4431 14.4702 82.9921 16.4943 82.0901 18.1634C81.1953 19.8324 79.9737 21.1073 78.4254 21.9879C76.8842 22.8615 75.1512 23.2983 73.2265 23.2983C71.2876 23.2983 69.5475 22.858 68.0063 21.9773C66.4651 21.0966 65.2471 19.8218 64.3522 18.1527C63.4573 16.4837 63.0099 14.4631 63.0099 12.0909C63.0099 9.71167 63.4573 7.68752 64.3522 6.01849C65.2471 4.34945 66.4651 3.07815 68.0063 2.20457C69.5475 1.32389 71.2876 0.883545 73.2265 0.883545C75.1512 0.883545 76.8842 1.32389 78.4254 2.20457C79.9737 3.07815 81.1953 4.34945 82.0901 6.01849C82.9921 7.68752 83.4431 9.71167 83.4431 12.0909ZM78.7663 12.0909C78.7663 10.5497 78.5355 9.25002 78.0738 8.19178C77.6193 7.13355 76.9765 6.33099 76.1455 5.78411C75.3146 5.23724 74.3416 4.9638 73.2265 4.9638C72.1114 4.9638 71.1384 5.23724 70.3075 5.78411C69.4765 6.33099 68.8302 7.13355 68.3686 8.19178C67.914 9.25002 67.6867 10.5497 67.6867 12.0909C67.6867 13.6321 67.914 14.9318 68.3686 15.9901C68.8302 17.0483 69.4765 17.8509 70.3075 18.3978C71.1384 18.9446 72.1114 19.2181 73.2265 19.2181C74.3416 19.2181 75.3146 18.9446 76.1455 18.3978C76.9765 17.8509 77.6193 17.0483 78.0738 15.9901C78.5355 14.9318 78.7663 13.6321 78.7663 12.0909Z" fill="#B6070A"/>
<path d="M55.0385 8.2344C54.8893 7.71593 54.6798 7.25783 54.4099 6.86011C54.14 6.45528 53.8098 6.11437 53.4192 5.83738C53.0356 5.55329 52.5953 5.33667 52.0981 5.18752C51.6081 5.03838 51.0648 4.9638 50.4682 4.9638C49.3531 4.9638 48.373 5.24079 47.5278 5.79477C46.6898 6.34874 46.0363 7.15485 45.5676 8.21309C45.0988 9.26423 44.8645 10.5497 44.8645 12.0696C44.8645 13.5895 45.0953 14.8821 45.5569 15.9475C46.0186 17.0128 46.672 17.826 47.5172 18.3871C48.3623 18.9411 49.3602 19.2181 50.5108 19.2181C51.5548 19.2181 52.4461 19.0334 53.1848 18.6641C53.9305 18.2877 54.4987 17.7585 54.8893 17.0767C55.2871 16.3949 55.4859 15.5888 55.4859 14.6584L56.4234 14.7969H50.7984V11.3239H59.9284V14.0725C59.9284 15.9901 59.5236 17.6378 58.7139 19.0156C57.9042 20.3864 56.7892 21.4446 55.3687 22.1904C53.9483 22.929 52.3219 23.2983 50.4895 23.2983C48.444 23.2983 46.6471 22.8473 45.0988 21.9453C43.5506 21.0362 42.3432 19.7472 41.4767 18.0781C40.6173 16.402 40.1876 14.4134 40.1876 12.1122C40.1876 10.3438 40.4433 8.76707 40.9547 7.38212C41.4731 5.99008 42.1976 4.8111 43.128 3.84519C44.0584 2.87928 45.1415 2.1442 46.3773 1.63994C47.6131 1.13568 48.9518 0.883545 50.3936 0.883545C51.6294 0.883545 52.78 1.06465 53.8453 1.42687C54.9106 1.78198 55.8552 2.28624 56.6791 2.93965C57.5101 3.59306 58.1883 4.37076 58.7139 5.27275C59.2395 6.16764 59.5768 7.15485 59.726 8.2344H55.0385Z" fill="#B6070A"/>
<path d="M37.1541 12.0909C37.1541 14.4702 36.7031 16.4943 35.8011 18.1634C34.9062 19.8324 33.6846 21.1073 32.1363 21.9879C30.5951 22.8615 28.8622 23.2983 26.9374 23.2983C24.9985 23.2983 23.2585 22.858 21.7173 21.9773C20.1761 21.0966 18.958 19.8218 18.0632 18.1527C17.1683 16.4837 16.7208 14.4631 16.7208 12.0909C16.7208 9.71167 17.1683 7.68752 18.0632 6.01849C18.958 4.34945 20.1761 3.07815 21.7173 2.20457C23.2585 1.32389 24.9985 0.883545 26.9374 0.883545C28.8622 0.883545 30.5951 1.32389 32.1363 2.20457C33.6846 3.07815 34.9062 4.34945 35.8011 6.01849C36.7031 7.68752 37.1541 9.71167 37.1541 12.0909ZM32.4772 12.0909C32.4772 10.5497 32.2464 9.25002 31.7847 8.19178C31.3302 7.13355 30.6874 6.33099 29.8565 5.78411C29.0255 5.23724 28.0525 4.9638 26.9374 4.9638C25.8224 4.9638 24.8494 5.23724 24.0184 5.78411C23.1874 6.33099 22.5411 7.13355 22.0795 8.19178C21.6249 9.25002 21.3977 10.5497 21.3977 12.0909C21.3977 13.6321 21.6249 14.9318 22.0795 15.9901C22.5411 17.0483 23.1874 17.8509 24.0184 18.3978C24.8494 18.9446 25.8224 19.2181 26.9374 19.2181C28.0525 19.2181 29.0255 18.9446 29.8565 18.3978C30.6874 17.8509 31.3302 17.0483 31.7847 15.9901C32.2464 14.9318 32.4772 13.6321 32.4772 12.0909Z" fill="#B6070A"/>
<path d="M0.932495 22.9999V1.18176H5.54542V19.1967H14.8991V22.9999H0.932495Z" fill="#B6070A"/>
</svg>
